<svg width="24" height="24" viewBox="0 0 24 24" fill="none" xmlns="http://www.w3.org/2000/svg"><path fill="#003143" d="M23.57 1h-3.8c-.2 0-.4.19-.4.44v10.23c0 .29-.24.35-.36.1L13.59 1.4c-.19-.32-.37-.41-.77-.41H.99c-.4 0-.62.22-.62.63v3c0 .4.22.63.62.63H8c.25 0 .34.06.18.31L.43 17.25c-.34.56-.43.94-.43 1.34v2.57c0 1.25.5 1.75 1.73 1.75h11.89c.21 0 .43-.18.43-.43V11.74c0-.28.18-.35.34-.1l5.85 11c.1.18.28.27.59.27h1.48c1.1 0 1.69-.6 1.69-1.72V1.44a.44.44 0 00-.43-.44zM4.93 18.28l4.47-6.55v6.9H5.14c-.3 0-.3-.2-.21-.35z"></path></svg>